<svg xmlns="http://www.w3.org/2000/svg" viewBox="0 0 24 24" width="48" height="48" fill="none">
  <!-- Soft green background circle -->
  <rect width="24" height="24" rx="6" fill="#059669" />
  <!-- Book path in white -->
  <path d="M6.5 3.5A2.5 2.5 0 0 0 4 6v12a2.5 2.5 0 0 0 2.5 2.5h12a1 1 0 0 0 1-1v-14a1 1 0 0 0-1-1h-12z" fill="#FFFFFF"/>
  <path d="M6.5 17h11v2.5h-11a1.5 1.5 0 0 1-1.5-1.5v-0.5a.5.5 0 0 1 .5-.5z" fill="#047857"/>
  <!-- Book spine decoration lines -->
  <line x1="8" y1="7" x2="16" y2="7" stroke="#059669" stroke-width="1.5" stroke-linecap="round"/>
  <line x1="8" y1="10.5" x2="14" y2="10.5" stroke="#059669" stroke-width="1.5" stroke-linecap="round"/>
  <line x1="8" y1="14" x2="12" y2="14" stroke="#059669" stroke-width="1.5" stroke-linecap="round"/>
</svg>